HIERARCHY
ROOT root
{
	OFFSET	0	13.1	24.9
	CHANNELS 6  Xposition Yposition Zposition Xrotation Yrotation Zrotation
	JOINT spine_1
	{
		OFFSET	0	9.99999	0
		CHANNELS 3  Xrotation Yrotation Zrotation
		JOINT spine_2
		{
			OFFSET	0	112	-10
			CHANNELS 3  Xrotation Yrotation Zrotation
			JOINT spine_3
			{
				OFFSET	0	206.5	19.3
				CHANNELS 3  Xrotation Yrotation Zrotation
				JOINT spine_4
				{
					OFFSET	0	110.4	14.6
					CHANNELS 3  Xrotation Yrotation Zrotation
					JOINT neck_1
					{
						OFFSET	0	71.8	-50.3
						CHANNELS 3  Xrotation Yrotation Zrotation
						JOINT neck_2
						{
							OFFSET	0	86.2	-25.8
							CHANNELS 3  Xrotation Yrotation Zrotation
							JOINT head_ee
							{
								OFFSET	0	179.8	-8.7
								CHANNELS 3  Xrotation Yrotation Zrotation
								End Site
								{
									OFFSET	1	0	0
								}
							}
						}
					}
					JOINT left_clavicle
					{
						OFFSET	-43.2	22.4	-70.8
						CHANNELS 3  Xrotation Yrotation Zrotation
						JOINT left_shoulder
						{
							OFFSET	-93.9	-5.79999	48.7
							CHANNELS 3  Xrotation Yrotation Zrotation
							JOINT left_elbow
							{
								OFFSET	-291.4	-30.8	15.2
								CHANNELS 3  Xrotation Yrotation Zrotation
								JOINT left_lowarm_twist
								{
									OFFSET	-110.7	-3.89999	13.6
									CHANNELS 3  Xrotation Yrotation Zrotation
									JOINT left_hand
									{
										OFFSET	-110.7	-3.89999	13.6
										CHANNELS 3  Xrotation Yrotation Zrotation
										JOINT left_ee
										{
											OFFSET	-80.8	-5.10001	12.1
											CHANNELS 3  Xrotation Yrotation Zrotation
											End Site
											{
												OFFSET	1	0	0
											}
										}
									}
								}
							}
						}
					}
					JOINT right_clavicle
					{
						OFFSET	43.2	22.4	-70.8
						CHANNELS 3  Xrotation Yrotation Zrotation
						JOINT right_shoulder
						{
							OFFSET	93.9	-5.79999	48.7
							CHANNELS 3  Xrotation Yrotation Zrotation
							JOINT right_elbow
							{
								OFFSET	291.4	-30.8	15.2
								CHANNELS 3  Xrotation Yrotation Zrotation
								JOINT right_lowarm_twist
								{
									OFFSET	110.7	-3.89999	13.6
									CHANNELS 3  Xrotation Yrotation Zrotation
									JOINT right_hand
									{
										OFFSET	110.7	-3.89999	13.6
										CHANNELS 3  Xrotation Yrotation Zrotation
										JOINT right_ee
										{
											OFFSET	80.8	-5.10001	12.1
											CHANNELS 3  Xrotation Yrotation Zrotation
											End Site
											{
												OFFSET	1	0	0
											}
										}
									}
								}
							}
						}
					}
				}
			}
		}
	}
	JOINT left_hip
	{
		OFFSET	-82.8	-127.5	0.300001
		CHANNELS 3  Xrotation Yrotation Zrotation
		JOINT left_knee
		{
			OFFSET	-28.2	-396.7	2.2
			CHANNELS 3  Xrotation Yrotation Zrotation
			JOINT left_ankle
			{
				OFFSET	-11.7	-411.3	35.4
				CHANNELS 3  Xrotation Yrotation Zrotation
				JOINT left_toes
				{
					OFFSET	0	-60	-88.6
					CHANNELS 3  Xrotation Yrotation Zrotation
					JOINT left_foot_ee
					{
						OFFSET	-22.5	-16.5	-42.2
						CHANNELS 3  Xrotation Yrotation Zrotation
						End Site
						{
							OFFSET	1	0	0
						}
					}
				}
			}
		}
	}
	JOINT right_hip
	{
		OFFSET	82.8	-127.5	0.300001
		CHANNELS 3  Xrotation Yrotation Zrotation
		JOINT right_knee
		{
			OFFSET	28.2	-396.7	2.2
			CHANNELS 3  Xrotation Yrotation Zrotation
			JOINT right_ankle
			{
				OFFSET	11.7	-411.3	35.4
				CHANNELS 3  Xrotation Yrotation Zrotation
				JOINT right_toes
				{
					OFFSET	0	-60	-88.6
					CHANNELS 3  Xrotation Yrotation Zrotation
					JOINT right_foot_ee
					{
						OFFSET	22.5	-16.5	-42.2
						CHANNELS 3  Xrotation Yrotation Zrotation
						End Site
						{
							OFFSET	1	0	0
						}
					}
				}
			}
		}
	}
}
MOTION
Frames: 11
Frame Time: 0.02
2858.42098941 702.493 -1672.92771207 -10.6620460594 76.8134358995 13.2508674672 2.28353 -0.634913 -1.40288 2.28446 -0.544367 -1.44043 2.29819 -0.290469 -1.51221 2.29539 -0.525624 -1.44738 -18.7261 9.53399 5.66928 -18.9346 15.3656 9.07606 -0.0 0.0 -0.0 7.28577 15.2703 13.5776 -1.3669 -33.5869 66.2848 1.61025 -38.5754 0.563545 10.6549 0.251829 -1.33582 -0.105858 24.8397 9.26074 -0.0 0.0 -0.0 7.37591 -9.52621 -14.0778 -9.03751 -28.8145 -63.3218 1.30532 32.8858 -0.385253 -56.3565 4.83343 -4.97338 8.96477 10.7743 -74.0129 0.0 0.0 0.0 4.39769 -1.94332 1.50656 3.34881 -0.15232 -0.491187 23.1456 -0.0112025 -3.13516 -22.419 0.0 0.0 -0.0 0.0 -0.0 13.8164 7.29576 0.0471608 -52.6637 1.46198 -7.66937 39.4066 -5.16024 4.80608 1.27288 -0.0 -0.0 0.0 0.0 0.0 
2850.25423082 707.018 -1666.44976517 -15.8086220427 77.2429670789 18.1651676935 2.33738 -0.676745 -1.34173 2.33819 -0.590005 -1.38207 2.35248 -0.346799 -1.46216 2.34995 -0.573346 -1.38906 -18.331 9.2937 5.44586 -18.5213 14.9741 8.71134 -0.0 0.0 -0.0 7.5676 14.7092 14.0914 0.186765 -33.8894 66.3951 1.66461 -39.5057 0.597785 10.6257 0.25148 -1.3321 0.35814 23.1353 11.3453 -0.0 0.0 -0.0 7.91543 -11.1657 -14.9506 -6.28125 -30.2556 -59.4903 1.06304 27.7704 -0.262791 -51.6487 4.26621 -4.76634 8.99838 10.295 -75.7692 0.0 0.0 0.0 4.43403 -1.00065 2.16386 5.26194 -0.252167 -0.767621 21.7185 -0.721277 -2.96803 -24.8853 0.0 0.0 -0.0 0.0 -0.0 16.757 6.58281 -0.245607 -52.4218 1.43957 -7.6396 36.113 -10.9277 4.52582 -2.77112 0.0 0.0 0.0 0.0 0.0 
2834.35397126 706.07 -1659.97267387 -16.2873124558 78.8969371672 18.7733673598 2.39183 -0.831779 -1.35447 2.39255 -0.743914 -1.40464 2.41089 -0.496239 -1.51 2.40844 -0.728465 -1.41271 -17.5535 9.97364 5.23181 -17.7808 16.3077 8.6648 -0.0 0.0 -0.0 8.07397 15.0983 14.9139 1.83806 -33.8828 66.4234 1.64455 -39.1653 0.585071 11.0542 0.256406 -1.38661 0.105214 22.6731 9.69208 -0.0 0.0 -0.0 7.85837 -13.4474 -14.6843 -5.46009 -30.9223 -56.7154 1.03712 27.1915 -0.25083 -49.9772 4.06912 -4.68171 9.05432 10.7253 -76.2327 0.0 0.0 0.0 3.03149 -0.131374 2.71399 5.09307 -0.242982 -0.743354 23.6388 -0.294928 -3.19567 -24.6923 0.0 0.0 -0.0 0.0 -0.0 17.647 5.51808 -0.162628 -52.8483 1.47917 -7.69202 35.8814 -11.4336 4.50745 -0.96458 0.0 0.0 0.0 0.0 0.0 
2814.16470841 703.758 -1645.9612248 -18.4819137478 82.7434838529 21.221024692 2.22604 -1.09906 -1.38516 2.22655 -1.0087 -1.45227 2.25239 -0.74487 -1.60364 2.25016 -0.988761 -1.46592 -18.3815 8.40278 4.57063 -18.5541 13.7302 7.55255 -0.0 0.0 -0.0 8.57581 11.2558 16.1255 5.33589 -34.2907 66.171 1.57283 -37.9206 0.540378 9.51289 0.236786 -1.19072 -0.258626 23.2807 7.79386 -0.0 0.0 -0.0 8.27655 -16.9328 -15.0728 -4.18013 -31.3816 -52.7988 0.975416 25.789 -0.223307 -50.8496 4.17168 -4.7266 8.94053 9.38975 -76.2493 0.0 0.0 0.0 -0.0192491 1.32084 3.0549 6.38067 -0.314825 -0.927706 26.869 0.642917 -3.56257 -25.6035 0.0 0.0 -0.0 0.0 -0.0 21.0212 5.58099 -0.868385 -48.7491 1.11498 -7.17646 34.6409 -16.0488 4.43627 -2.90068 0.0 0.0 0.0 0.0 0.0 
2799.6671285 705.272 -1625.01694159 -25.5040718776 85.1705909269 28.9316168276 2.2379 -0.582483 -1.72554 2.23943 -0.47152 -1.75909 2.25391 -0.162866 -1.81387 2.24959 -0.447245 -1.76542 -18.1548 7.67051 5.01562 -18.2563 12.0574 7.64088 -0.0 0.0 -0.0 8.99558 7.79806 17.1754 7.36904 -35.1559 66.3944 1.48865 -36.404 0.489526 9.84688 0.241485 -1.23312 -0.324307 22.8191 7.23431 -0.0 0.0 -0.0 8.38819 -18.8579 -15.0407 -1.85128 -31.3718 -49.1225 0.727446 19.8169 -0.127072 -47.6045 3.79375 -4.55179 9.01396 9.98557 -76.8496 0.0 0.0 0.0 -2.12178 1.96232 2.3149 6.87818 -0.343694 -0.998507 30.0133 1.55986 -3.90184 -27.1473 0.0 0.0 -0.0 0.0 -0.0 24.9427 1.44905 0.34326 -35.9253 0.228094 -5.41945 26.513 -13.3758 3.5293 -8.68959 0.0 0.0 0.0 0.0 0.0 
2791.50179854 701.869 -1616.99113523 -41.5368875751 86.9113558303 45.0636295524 2.26153 -0.776439 -1.7447 2.26298 -0.663864 -1.79055 2.28381 -0.348052 -1.87764 2.27946 -0.640175 -1.79915 -18.7817 7.44404 4.88697 -18.8878 11.755 7.50723 -0.0 0.0 -0.0 9.1532 5.38475 17.6471 7.73283 -35.2665 65.1797 1.45907 -35.8566 0.472087 9.33935 0.234247 -1.1687 -0.299091 22.041 7.07983 -0.0 0.0 -0.0 8.4394 -19.9088 -14.9956 -2.16534 -30.8814 -48.2713 0.691709 18.9142 -0.115222 -45.4432 3.54775 -4.42361 8.89586 8.95308 -76.0336 0.0 0.0 0.0 -2.80676 1.36491 1.7143 4.80112 -0.227271 -0.701336 33.1765 0.362195 -4.23682 -27.9739 0.0 0.0 -0.0 0.0 -0.0 26.0664 0.560863 0.401777 -30.1312 -0.0390174 -4.57095 16.8377 -13.2958 2.34368 -12.5027 0.0 0.0 0.0 0.0 0.0 
2781.08964288 703.924 -1614.72027573 -55.4384620419 87.6794953882 59.0588226078 2.28212 -0.847387 -1.77579 2.28358 -0.732692 -1.82609 2.30703 -0.410614 -1.92424 2.30256 -0.709309 -1.83529 -19.2217 7.04742 4.93146 -19.3106 11.0114 7.43747 -0.0 0.0 -0.0 9.18314 3.6341 17.8121 6.94989 -35.3857 64.3952 1.43021 -35.3148 0.455288 9.68217 0.239198 -1.21221 -0.290084 21.6017 6.96201 -0.0 0.0 -0.0 8.56383 -21.0264 -15.0461 -2.03948 -30.3999 -47.699 0.62348 17.1636 -0.0940909 -45.8603 3.59484 -4.44907 8.88027 8.78216 -75.9936 0.0 0.0 0.0 -3.54552 1.16936 1.03424 2.87628 -0.129087 -0.422418 35.9585 0.309225 -4.50862 -27.3087 0.0 0.0 -0.0 0.0 -0.0 26.9216 -0.230628 0.520602 -24.659 -0.21132 -3.74911 12.438 -12.9989 1.75997 -14.257 0.0 0.0 0.0 0.0 0.0 
2780.2339167 703.924 -1621.33682908 -40.0660488711 87.0306085456 43.6704554156 2.28212 -0.847387 -1.77579 2.28358 -0.732692 -1.82609 2.30703 -0.410614 -1.92424 2.30256 -0.709309 -1.83529 -19.2217 7.04742 4.93146 -19.3106 11.0114 7.43747 -0.0 0.0 -0.0 9.18314 3.6341 17.8121 6.94989 -35.3857 64.3952 1.43021 -35.3148 0.455288 9.68217 0.239198 -1.21221 -0.290084 21.6017 6.96201 -0.0 0.0 -0.0 8.56383 -21.0264 -15.0461 -2.03948 -30.3999 -47.699 0.62348 17.1636 -0.0940909 -45.8603 3.59484 -4.44907 8.88027 8.78216 -75.9936 0.0 0.0 0.0 -3.54552 1.16936 1.03424 2.87628 -0.129087 -0.422418 35.9585 0.309225 -4.50862 -27.3087 0.0 0.0 -0.0 0.0 -0.0 26.9216 -0.230628 0.520602 -24.659 -0.21132 -3.74911 12.438 -12.9989 1.75997 -14.257 0.0 0.0 0.0 0.0 0.0 
2779.99021603 703.924 -1623.39824543 -36.6407286639 86.7971455604 40.2401704694 2.28212 -0.847387 -1.77579 2.28358 -0.732692 -1.82609 2.30703 -0.410614 -1.92424 2.30256 -0.709309 -1.83529 -19.2217 7.04742 4.93146 -19.3106 11.0114 7.43747 -0.0 0.0 -0.0 9.18314 3.6341 17.8121 6.94989 -35.3857 64.3952 1.43021 -35.3148 0.455288 9.68217 0.239198 -1.21221 -0.290084 21.6017 6.96201 -0.0 0.0 -0.0 8.56383 -21.0264 -15.0461 -2.03948 -30.3999 -47.699 0.62348 17.1636 -0.0940909 -45.8603 3.59484 -4.44907 8.88027 8.78216 -75.9936 0.0 0.0 0.0 -3.54552 1.16936 1.03424 2.87628 -0.129087 -0.422418 35.9585 0.309225 -4.50862 -27.3087 0.0 0.0 -0.0 0.0 -0.0 26.9216 -0.230628 0.520602 -24.659 -0.21132 -3.74911 12.438 -12.9989 1.75997 -14.257 0.0 0.0 0.0 0.0 0.0 
2770.26774396 702.58 -1622.6003897 -63.7781604032 85.94320385 67.484408024 2.26266 -0.514416 -1.86686 2.26451 -0.394603 -1.8958 2.27749 -0.0643978 -1.93535 2.27246 -0.369186 -1.90091 -21.4171 6.97392 4.77416 -21.5464 11.1549 7.51931 -0.0 0.0 -0.0 9.33766 1.68752 18.2219 7.78018 -35.819 63.2386 1.41723 -35.0688 0.447806 7.95942 0.211685 -0.993878 -0.379512 20.1199 5.84863 -0.0 0.0 -0.0 8.95913 -22.2875 -15.4707 -2.39871 -29.9621 -47.665 0.55513 15.3762 -0.0749395 -43.9705 3.38298 -4.33102 8.74685 7.09122 -76.0166 0.0 0.0 0.0 -0.308013 -1.69523 -0.868239 -1.07289 0.0426881 0.159114 34.5614 -3.10497 -4.40632 -28.4259 0.0 0.0 -0.0 0.0 -0.0 28.8446 -0.946343 0.538394 -9.18524 -0.267826 -1.3827 6.44417 -8.50286 0.926688 -17.7897 0.0 0.0 0.0 0.0 0.0 
2769.83782986 702.58 -1626.51152611 -57.2363610291 85.6716756308 60.9251123225 2.26266 -0.514416 -1.86686 2.26451 -0.394603 -1.8958 2.27749 -0.0643978 -1.93535 2.27246 -0.369186 -1.90091 -21.4171 6.97392 4.77416 -21.5464 11.1549 7.51931 -0.0 0.0 -0.0 9.33766 1.68752 18.2219 7.78018 -35.819 63.2386 1.41723 -35.0688 0.447806 7.95942 0.211685 -0.993878 -0.379512 20.1199 5.84863 -0.0 0.0 -0.0 8.95913 -22.2875 -15.4707 -2.39871 -29.9621 -47.665 0.55513 15.3762 -0.0749395 -43.9705 3.38298 -4.33102 8.74685 7.09122 -76.0166 0.0 0.0 0.0 -0.308013 -1.69523 -0.868239 -1.07289 0.0426881 0.159114 34.5614 -3.10497 -4.40632 -28.4259 0.0 0.0 -0.0 0.0 -0.0 28.8446 -0.946343 0.538394 -9.18524 -0.267826 -1.3827 6.44417 -8.50286 0.926688 -17.7897 0.0 0.0 0.0 0.0 0.0 
